<?xml version="1.0" encoding="UTF-8" standalone="no"?>
<!-- Created with Inkscape (http://www.inkscape.org/) -->

<svg
   width="202"
   height="70"
   viewBox="0 0 53.445833 18.520833"
   version="1.1"
   id="svg6278"
   xmlns="http://www.w3.org/2000/svg"
   xmlns:svg="http://www.w3.org/2000/svg">
  <defs
     id="defs6275">
    <clipPath
       clipPathUnits="userSpaceOnUse"
       id="clipPath5020">
      <path
         d="M 0,0 H 1280 V 720 H 0 Z"
         id="path5018" />
    </clipPath>
    <clipPath
       clipPathUnits="userSpaceOnUse"
       id="clipPath5242">
      <path
         d="M 0,0 H 1280 V 720 H 0 Z"
         id="path5240" />
    </clipPath>
  </defs>
  <g
     id="layer1"
     transform="translate(-199.07378,-99.818676)">
    <g
       id="g6131"
       transform="matrix(0.09145621,0,0,-0.09145621,160.67428,141.99945)"
       style="fill:#ffffff;fill-opacity:1">
      <g
         id="g5014"
         style="fill:#ffffff;fill-opacity:1">
        <g
           id="g5016"
           clip-path="url(#clipPath5020)"
           style="fill:#ffffff;fill-opacity:1">
          <g
             id="g5022"
             transform="translate(479.1819,456.0789)"
             style="fill:#ffffff;fill-opacity:1">
            <path
               d="m 0,0 c -1.426,1.262 -3.329,1.846 -5.219,1.602 -1.582,-0.204 -3.036,-0.976 -4.093,-2.171 -2.411,-2.724 -2.157,-6.901 0.568,-9.313 1.426,-1.262 3.328,-1.846 5.219,-1.602 1.582,0.204 3.036,0.975 4.093,2.17 C 2.979,-6.589 2.724,-2.412 0,0"
               style="fill:#ffffff;fill-opacity:1;fill-rule:nonzero;stroke:none"
               id="path5024" />
          </g>
          <g
             id="g5026"
             transform="translate(483.4567,424.814)"
             style="fill:#ffffff;fill-opacity:1">
            <path
               d="m 0,0 c -2.754,2.092 -3.292,6.02 -1.2,8.774 2.091,2.754 6.02,3.292 8.774,1.2 C 10.328,7.883 10.866,3.955 8.774,1.2 6.683,-1.554 2.754,-2.092 0,0"
               style="fill:#ffffff;fill-opacity:1;fill-rule:nonzero;stroke:none"
               id="path5028" />
          </g>
          <g
             id="g5030"
             transform="translate(458.4167,425.8684)"
             style="fill:#ffffff;fill-opacity:1">
            <path
               d="M 0,0 C -3.976,3.066 -4.713,8.775 -1.647,12.751 1.42,16.727 7.129,17.465 11.104,14.398 15.08,11.332 15.818,5.623 12.751,1.647 9.685,-2.329 3.976,-3.066 0,0"
               style="fill:#ffffff;fill-opacity:1;fill-rule:nonzero;stroke:none"
               id="path5032" />
          </g>
          <g
             id="g5034"
             transform="translate(478.9695,417.6978)"
             style="fill:#ffffff;fill-opacity:1">
            <path
               d="m 0,0 c 4.889,-3.77 5.795,-10.79 2.025,-15.678 -3.771,-4.889 -10.79,-5.796 -15.679,-2.026 -4.888,3.771 -5.795,10.79 -2.025,15.679 C -11.908,2.864 -4.889,3.77 0,0"
               style="fill:#ffffff;fill-opacity:1;fill-rule:nonzero;stroke:none"
               id="path5036" />
          </g>
          <g
             id="g5038"
             transform="translate(506.8539,423.6992)"
             style="fill:#ffffff;fill-opacity:1">
            <path
               d="m 0,0 c -1.711,8.385 3.7,16.57 12.085,18.281 8.385,1.711 16.57,-3.7 18.281,-12.085 1.711,-8.385 -3.7,-16.57 -12.085,-18.281 C 9.896,-13.796 1.711,-8.385 0,0"
               style="fill:#ffffff;fill-opacity:1;fill-rule:nonzero;stroke:none"
               id="path5040" />
          </g>
          <g
             id="g5042"
             transform="translate(531.3354,449.4724)"
             style="fill:#ffffff;fill-opacity:1">
            <path
               d="M 0,0 C -0.753,5.187 2.842,10.002 8.029,10.755 13.216,11.508 18.031,7.914 18.784,2.727 19.537,-2.461 15.943,-7.276 10.755,-8.029 5.568,-8.782 0.753,-5.187 0,0"
               style="fill:#ffffff;fill-opacity:1;fill-rule:nonzero;stroke:none"
               id="path5044" />
          </g>
          <g
             id="g5046"
             transform="translate(557.9265,449.9634)"
             style="fill:#ffffff;fill-opacity:1">
            <path
               d="m 0,0 c -2.754,2.092 -3.292,6.02 -1.2,8.774 2.091,2.754 6.019,3.292 8.774,1.2 C 10.328,7.883 10.865,3.955 8.774,1.2 6.683,-1.554 2.754,-2.092 0,0"
               style="fill:#ffffff;fill-opacity:1;fill-rule:nonzero;stroke:none"
               id="path5048" />
          </g>
          <g
             id="g5050"
             transform="translate(526.441,399.6965)"
             style="fill:#ffffff;fill-opacity:1">
            <path
               d="m 0,0 c -0.455,-0.455 -0.455,-1.2 0,-1.655 l 0.526,-0.526 c 6.297,-6.298 15.814,-7.561 23.25,-3.488 2.121,1.175 4.004,2.99 4.668,5.384 0.687,2.479 0.194,5.415 -0.989,7.662 -0.623,1.183 -1.466,2.245 -2.47,3.129 C 20.617,14.352 13.943,13.944 9.827,9.828 9.827,9.828 0.001,0.001 0,0"
               style="fill:#ffffff;fill-opacity:1;fill-rule:nonzero;stroke:none"
               id="path5052" />
          </g>
          <g
             id="g5054"
             transform="translate(541.2246,383.4939)"
             style="fill:#ffffff;fill-opacity:1">
            <path
               d="m 0,0 1.001,1.001 c 0.763,0.763 0.187,2.062 -0.89,2.008 -6.599,-0.333 -13.309,2.014 -18.338,7.042 l -4.984,4.984 c -0.18,0.142 -0.355,0.292 -0.521,0.457 l -10.725,10.726 c -4.278,4.279 -11.215,4.279 -15.493,0 -4.278,-4.279 -4.278,-11.215 0,-15.493 l 10.726,-10.726 c 5.407,-5.406 12.509,-8.109 19.612,-8.109 7.102,0 14.204,2.703 19.612,8.11"
               style="fill:#ffffff;fill-opacity:1;fill-rule:nonzero;stroke:none"
               id="path5056" />
          </g>
          <g
             id="g5058"
             transform="translate(618.03,402.7695)"
             style="fill:#ffffff;fill-opacity:1">
            <path
               d="m 0,0 c 1.262,1.426 1.846,3.329 1.602,5.219 -0.204,1.582 -0.976,3.035 -2.171,4.093 -2.724,2.41 -6.901,2.157 -9.313,-0.568 -1.261,-1.427 -1.846,-3.328 -1.602,-5.22 0.204,-1.581 0.975,-3.035 2.17,-4.093 C -6.589,-2.979 -2.412,-2.724 0,0"
               style="fill:#ffffff;fill-opacity:1;fill-rule:nonzero;stroke:none"
               id="path5060" />
          </g>
          <g
             id="g5062"
             transform="translate(586.7651,398.4946)"
             style="fill:#ffffff;fill-opacity:1">
            <path
               d="m 0,0 c 2.091,2.754 6.02,3.292 8.774,1.2 2.754,-2.091 3.292,-6.02 1.2,-8.774 C 7.883,-10.328 3.955,-10.865 1.2,-8.774 -1.554,-6.683 -2.091,-2.754 0,0"
               style="fill:#ffffff;fill-opacity:1;fill-rule:nonzero;stroke:none"
               id="path5064" />
          </g>
          <g
             id="g5066"
             transform="translate(587.8196,423.5347)"
             style="fill:#ffffff;fill-opacity:1">
            <path
               d="M 0,0 C 3.066,3.976 8.775,4.713 12.751,1.647 16.727,-1.42 17.465,-7.129 14.398,-11.105 11.332,-15.081 5.623,-15.818 1.647,-12.751 -2.329,-9.685 -3.066,-3.976 0,0"
               style="fill:#ffffff;fill-opacity:1;fill-rule:nonzero;stroke:none"
               id="path5068" />
          </g>
          <g
             id="g5070"
             transform="translate(579.6489,402.9819)"
             style="fill:#ffffff;fill-opacity:1">
            <path
               d="m 0,0 c -3.77,-4.889 -10.79,-5.795 -15.678,-2.025 -4.889,3.77 -5.796,10.79 -2.025,15.679 3.77,4.888 10.789,5.795 15.678,2.024 C 2.864,11.908 3.77,4.889 0,0"
               style="fill:#ffffff;fill-opacity:1;fill-rule:nonzero;stroke:none"
               id="path5072" />
          </g>
          <g
             id="g5074"
             transform="translate(585.6505,375.0974)"
             style="fill:#ffffff;fill-opacity:1">
            <path
               d="m 0,0 c 8.385,1.711 16.57,-3.7 18.281,-12.085 1.711,-8.385 -3.7,-16.57 -12.085,-18.281 -8.385,-1.711 -16.57,3.7 -18.281,12.085 C -13.796,-9.896 -8.385,-1.711 0,0"
               style="fill:#ffffff;fill-opacity:1;fill-rule:nonzero;stroke:none"
               id="path5076" />
          </g>
          <g
             id="g5078"
             transform="translate(611.4236,350.616)"
             style="fill:#ffffff;fill-opacity:1">
            <path
               d="m 0,0 c 5.187,0.753 10.003,-2.842 10.755,-8.029 0.753,-5.187 -2.841,-10.002 -8.028,-10.755 -5.188,-0.753 -10.003,2.842 -10.756,8.028 C -8.782,-5.568 -5.187,-0.753 0,0"
               style="fill:#ffffff;fill-opacity:1;fill-rule:nonzero;stroke:none"
               id="path5080" />
          </g>
          <g
             id="g5082"
             transform="translate(611.9146,324.0251)"
             style="fill:#ffffff;fill-opacity:1">
            <path
               d="m 0,0 c 2.091,2.754 6.02,3.292 8.774,1.2 2.754,-2.092 3.292,-6.02 1.2,-8.774 C 7.883,-10.328 3.955,-10.866 1.2,-8.774 -1.554,-6.683 -2.091,-2.755 0,0"
               style="fill:#ffffff;fill-opacity:1;fill-rule:nonzero;stroke:none"
               id="path5084" />
          </g>
          <g
             id="g5086"
             transform="translate(561.6478,355.5105)"
             style="fill:#ffffff;fill-opacity:1">
            <path
               d="m 0,0 c -0.455,0.455 -1.2,0.455 -1.655,0 l -0.527,-0.526 c -6.297,-6.297 -7.56,-15.814 -3.487,-23.25 1.175,-2.121 2.99,-4.004 5.384,-4.668 2.478,-0.687 5.415,-0.194 7.662,0.989 1.183,0.623 2.245,1.466 3.128,2.47 3.847,4.368 3.439,11.042 -0.677,15.158 0,0 -9.827,9.826 -9.828,9.827"
               style="fill:#ffffff;fill-opacity:1;fill-rule:nonzero;stroke:none"
               id="path5088" />
          </g>
          <g
             id="g5090"
             transform="translate(545.445,340.7268)"
             style="fill:#ffffff;fill-opacity:1">
            <path
               d="m 0,0 1.001,-1.001 c 0.763,-0.763 2.062,-0.187 2.008,0.89 -0.333,6.599 2.014,13.309 7.042,18.338 l 4.985,4.983 c 0.141,0.181 0.291,0.356 0.457,0.522 l 10.725,10.725 c 4.279,4.278 4.279,11.215 0,15.492 -4.278,4.279 -11.215,4.279 -15.493,0 L -0.001,39.224 C -5.407,33.817 -8.11,26.715 -8.11,19.612 -8.11,12.51 -5.407,5.408 0,0"
               style="fill:#ffffff;fill-opacity:1;fill-rule:nonzero;stroke:none"
               id="path5092" />
          </g>
          <g
             id="g5094"
             transform="translate(564.7206,263.9211)"
             style="fill:#ffffff;fill-opacity:1">
            <path
               d="m 0,0 c 1.426,-1.262 3.329,-1.846 5.219,-1.602 1.582,0.204 3.036,0.977 4.093,2.172 2.41,2.723 2.157,6.9 -0.568,9.312 C 7.318,11.144 5.416,11.729 3.525,11.484 1.943,11.28 0.489,10.509 -0.568,9.314 -2.979,6.589 -2.724,2.413 0,0"
               style="fill:#ffffff;fill-opacity:1;fill-rule:nonzero;stroke:none"
               id="path5096" />
          </g>
          <g
             id="g5098"
             transform="translate(560.4457,295.1863)"
             style="fill:#ffffff;fill-opacity:1">
            <path
               d="m 0,0 c 2.754,-2.092 3.292,-6.02 1.2,-8.774 -2.091,-2.754 -6.019,-3.291 -8.774,-1.201 -2.754,2.092 -3.291,6.02 -1.2,8.775 C -6.683,1.554 -2.754,2.091 0,0"
               style="fill:#ffffff;fill-opacity:1;fill-rule:nonzero;stroke:none"
               id="path5100" />
          </g>
          <g
             id="g5102"
             transform="translate(585.4858,294.1316)"
             style="fill:#ffffff;fill-opacity:1">
            <path
               d="m 0,0 c 3.976,-3.066 4.713,-8.775 1.647,-12.751 -3.067,-3.977 -8.776,-4.714 -12.751,-1.647 -3.977,3.066 -4.714,8.775 -1.647,12.752 C -9.685,2.329 -3.976,3.066 0,0"
               style="fill:#ffffff;fill-opacity:1;fill-rule:nonzero;stroke:none"
               id="path5104" />
          </g>
          <g
             id="g5106"
             transform="translate(564.933,302.3025)"
             style="fill:#ffffff;fill-opacity:1">
            <path
               d="m 0,0 c -4.889,3.771 -5.795,10.79 -2.025,15.679 3.77,4.888 10.79,5.795 15.679,2.024 4.888,-3.77 5.795,-10.79 2.025,-15.678 C 11.908,-2.864 4.889,-3.771 0,0"
               style="fill:#ffffff;fill-opacity:1;fill-rule:nonzero;stroke:none"
               id="path5108" />
          </g>
          <g
             id="g5110"
             transform="translate(537.0486,296.3005)"
             style="fill:#ffffff;fill-opacity:1">
            <path
               d="m 0,0 c 1.711,-8.385 -3.7,-16.57 -12.085,-18.281 -8.385,-1.711 -16.57,3.7 -18.281,12.086 -1.711,8.384 3.7,16.569 12.085,18.28 C -9.896,13.796 -1.711,8.386 0,0"
               style="fill:#ffffff;fill-opacity:1;fill-rule:nonzero;stroke:none"
               id="path5112" />
          </g>
          <g
             id="g5114"
             transform="translate(512.5671,270.5281)"
             style="fill:#ffffff;fill-opacity:1">
            <path
               d="m 0,0 c 0.753,-5.187 -2.842,-10.003 -8.029,-10.756 -5.187,-0.753 -10.002,2.842 -10.755,8.029 -0.753,5.187 2.841,10.002 8.029,10.755 C -5.568,8.781 -0.753,5.187 0,0"
               style="fill:#ffffff;fill-opacity:1;fill-rule:nonzero;stroke:none"
               id="path5116" />
          </g>
          <g
             id="g5118"
             transform="translate(485.9761,270.0369)"
             style="fill:#ffffff;fill-opacity:1">
            <path
               d="m 0,0 c 2.754,-2.092 3.292,-6.02 1.2,-8.774 -2.091,-2.754 -6.019,-3.292 -8.774,-1.201 -2.754,2.092 -3.292,6.02 -1.2,8.775 C -6.683,1.554 -2.754,2.091 0,0"
               style="fill:#ffffff;fill-opacity:1;fill-rule:nonzero;stroke:none"
               id="path5120" />
          </g>
          <g
             id="g5122"
             transform="translate(517.4615,320.3035)"
             style="fill:#ffffff;fill-opacity:1">
            <path
               d="m 0,0 c 0.455,0.455 0.455,1.2 0,1.655 l -0.526,0.527 c -6.297,6.297 -15.814,7.56 -23.25,3.487 -2.121,-1.175 -4.004,-2.99 -4.668,-5.384 -0.687,-2.478 -0.194,-5.415 0.989,-7.662 0.623,-1.183 1.466,-2.245 2.47,-3.128 4.368,-3.847 11.042,-3.438 15.158,0.677 0,0 9.826,9.827 9.827,9.828"
               style="fill:#ffffff;fill-opacity:1;fill-rule:nonzero;stroke:none"
               id="path5124" />
          </g>
          <g
             id="g5126"
             transform="translate(502.6779,336.5066)"
             style="fill:#ffffff;fill-opacity:1">
            <path
               d="m 0,0 -1.001,-1.001 c -0.763,-0.763 -0.187,-2.062 0.89,-2.008 6.599,0.332 13.309,-2.014 18.338,-7.043 l 4.984,-4.984 c 0.18,-0.141 0.355,-0.291 0.521,-0.457 l 10.725,-10.725 c 4.278,-4.279 11.215,-4.279 15.493,0 4.278,4.279 4.278,11.214 0,15.492 L 39.224,0 C 33.817,5.407 26.715,8.11 19.612,8.11 12.51,8.11 5.408,5.407 0,0"
               style="fill:#ffffff;fill-opacity:1;fill-rule:nonzero;stroke:none"
               id="path5128" />
          </g>
          <g
             id="g5130"
             transform="translate(425.8724,317.2307)"
             style="fill:#ffffff;fill-opacity:1">
            <path
               d="m 0,0 c -1.262,-1.426 -1.846,-3.329 -1.602,-5.219 0.204,-1.582 0.976,-3.035 2.171,-4.093 2.724,-2.41 6.901,-2.157 9.313,0.568 1.261,1.426 1.846,3.328 1.602,5.219 -0.204,1.582 -0.975,3.036 -2.17,4.093 C 6.589,2.979 2.412,2.724 0,0"
               style="fill:#ffffff;fill-opacity:1;fill-rule:nonzero;stroke:none"
               id="path5132" />
          </g>
          <g
             id="g5134"
             transform="translate(457.1374,321.5056)"
             style="fill:#ffffff;fill-opacity:1">
            <path
               d="m 0,0 c -2.091,-2.754 -6.02,-3.292 -8.774,-1.2 -2.754,2.091 -3.292,6.019 -1.2,8.774 2.091,2.754 6.019,3.291 8.774,1.2 C 1.554,6.683 2.091,2.754 0,0"
               style="fill:#ffffff;fill-opacity:1;fill-rule:nonzero;stroke:none"
               id="path5136" />
          </g>
          <g
             id="g5138"
             transform="translate(456.0829,296.4656)"
             style="fill:#ffffff;fill-opacity:1">
            <path
               d="m 0,0 c -3.067,-3.976 -8.776,-4.713 -12.751,-1.647 -3.976,3.066 -4.714,8.776 -1.647,12.751 3.066,3.976 8.775,4.713 12.751,1.647 C 2.329,9.685 3.066,3.976 0,0"
               style="fill:#ffffff;fill-opacity:1;fill-rule:nonzero;stroke:none"
               id="path5140" />
          </g>
          <g
             id="g5142"
             transform="translate(464.2535,317.0183)"
             style="fill:#ffffff;fill-opacity:1">
            <path
               d="m 0,0 c 3.77,4.889 10.79,5.795 15.679,2.025 4.888,-3.771 5.795,-10.79 2.024,-15.679 C 13.933,-18.542 6.914,-19.449 2.025,-15.679 -2.864,-11.908 -3.77,-4.889 0,0"
               style="fill:#ffffff;fill-opacity:1;fill-rule:nonzero;stroke:none"
               id="path5144" />
          </g>
          <g
             id="g5146"
             transform="translate(458.252,344.9031)"
             style="fill:#ffffff;fill-opacity:1">
            <path
               d="m 0,0 c -8.385,-1.711 -16.57,3.699 -18.281,12.085 -1.711,8.385 3.7,16.569 12.085,18.28 C 2.189,32.077 10.374,26.666 12.085,18.28 13.796,9.896 8.385,1.71 0,0"
               style="fill:#ffffff;fill-opacity:1;fill-rule:nonzero;stroke:none"
               id="path5148" />
          </g>
          <g
             id="g5150"
             transform="translate(432.4789,369.3845)"
             style="fill:#ffffff;fill-opacity:1">
            <path
               d="m 0,0 c -5.187,-0.753 -10.003,2.841 -10.755,8.028 -0.753,5.188 2.841,10.003 8.028,10.756 C 2.46,19.537 7.276,15.942 8.029,10.755 8.782,5.568 5.187,0.753 0,0"
               style="fill:#ffffff;fill-opacity:1;fill-rule:nonzero;stroke:none"
               id="path5152" />
          </g>
          <g
             id="g5154"
             transform="translate(431.9879,395.9751)"
             style="fill:#ffffff;fill-opacity:1">
            <path
               d="m 0,0 c -2.092,-2.754 -6.02,-3.292 -8.774,-1.2 -2.754,2.091 -3.292,6.02 -1.2,8.774 2.091,2.754 6.019,3.292 8.774,1.2 C 1.554,6.683 2.091,2.754 0,0"
               style="fill:#ffffff;fill-opacity:1;fill-rule:nonzero;stroke:none"
               id="path5156" />
          </g>
          <g
             id="g5158"
             transform="translate(482.2546,364.49)"
             style="fill:#ffffff;fill-opacity:1">
            <path
               d="m 0,0 c 0.455,-0.455 1.2,-0.455 1.655,0 l 0.527,0.526 c 6.297,6.297 7.56,15.814 3.487,23.25 -1.175,2.121 -2.99,4.004 -5.384,4.668 -2.478,0.687 -5.415,0.194 -7.662,-0.989 -1.183,-0.623 -2.245,-1.466 -3.128,-2.47 -3.846,-4.368 -3.439,-11.043 0.677,-15.158 0,0 9.827,-9.826 9.828,-9.827"
               style="fill:#ffffff;fill-opacity:1;fill-rule:nonzero;stroke:none"
               id="path5160" />
          </g>
          <g
             id="g5162"
             transform="translate(498.4575,379.2732)"
             style="fill:#ffffff;fill-opacity:1">
            <path
               d="m 0,0 -1.001,1.001 c -0.763,0.763 -2.062,0.187 -2.008,-0.89 0.333,-6.599 -2.014,-13.309 -7.042,-18.338 l -4.984,-4.983 c -0.142,-0.181 -0.292,-0.355 -0.458,-0.521 l -10.725,-10.726 c -4.279,-4.277 -4.279,-11.215 0,-15.492 4.279,-4.279 11.215,-4.279 15.493,0 l 10.726,10.725 c 5.406,5.407 8.11,12.509 8.11,19.612 C 8.111,-12.51 5.407,-5.407 0,0"
               style="fill:#ffffff;fill-opacity:1;fill-rule:nonzero;stroke:none"
               id="path5164" />
          </g>
          <g
             id="g5166"
             transform="translate(685.5555,409.8413)"
             style="fill:#ffffff;fill-opacity:1">
            <path
               d="m 0,0 c 0,-8.142 -6.632,-13.461 -14.84,-13.461 h -19.305 v 45.964 h 17.992 c 8.011,0 14.512,-5.187 14.512,-13.132 0,-3.809 -1.511,-6.83 -4.006,-8.996 C -2.232,8.208 0,4.662 0,0 m -23.639,22.654 v -8.143 h 7.486 c 2.364,0 4.005,1.708 4.005,4.072 0,2.363 -1.576,4.071 -4.005,4.071 z M -10.506,0.788 c 0,2.561 -1.708,4.399 -4.334,4.399 h -8.799 v -8.798 h 8.799 c 2.626,0 4.334,1.838 4.334,4.399"
               style="fill:#ffffff;fill-opacity:1;fill-rule:nonzero;stroke:none"
               id="path5168" />
          </g>
          <g
             id="g5170"
             transform="translate(688.1033,438.0107)"
             style="fill:#ffffff;fill-opacity:1">
            <path
               d="M 0,0 C 0,3.218 2.692,5.91 5.91,5.91 9.127,5.91 11.82,3.218 11.82,0 11.82,-3.218 9.127,-5.91 5.91,-5.91 2.692,-5.91 0,-3.218 0,0 m 0.985,-8.799 h 9.85 v -32.832 h -9.85 z"
               style="fill:#ffffff;fill-opacity:1;fill-rule:nonzero;stroke:none"
               id="path5172" />
          </g>
          <g
             id="g5174"
             transform="translate(702.3047,412.7961)"
             style="fill:#ffffff;fill-opacity:1">
            <path
               d="m 0,0 c 0,9.784 7.748,17.335 17.401,17.335 9.652,0 17.4,-7.551 17.4,-17.335 0,-9.784 -7.748,-17.335 -17.4,-17.335 C 7.748,-17.335 0,-9.784 0,0 m 24.951,0 c 0,4.662 -3.282,7.748 -7.55,7.748 C 13.133,7.748 9.85,4.662 9.85,0 c 0,-4.662 3.283,-7.749 7.551,-7.749 4.268,0 7.55,3.087 7.55,7.749"
               style="fill:#ffffff;fill-opacity:1;fill-rule:nonzero;stroke:none"
               id="path5176" />
          </g>
          <g
             id="g5178"
             transform="translate(757.9147,404.26)"
             style="fill:#ffffff;fill-opacity:1">
            <path
               d="m 0,0 c 2.692,0 4.99,1.05 6.304,2.495 l 7.879,-4.531 c -3.218,-4.465 -8.076,-6.763 -14.314,-6.763 -11.229,0 -18.189,7.551 -18.189,17.335 0,9.784 7.092,17.335 17.467,17.335 9.586,0 16.678,-7.42 16.678,-17.335 0,-1.379 -0.131,-2.692 -0.393,-3.94 H -7.88 C -6.632,1.181 -3.612,0 0,0 m 6.042,11.95 c -1.052,3.809 -4.007,5.188 -6.962,5.188 -3.742,0 -6.237,-1.838 -7.157,-5.188 z"
               style="fill:#ffffff;fill-opacity:1;fill-rule:nonzero;stroke:none"
               id="path5180" />
          </g>
          <g
             id="g5182"
             transform="translate(776.2291,412.7961)"
             style="fill:#ffffff;fill-opacity:1">
            <path
               d="m 0,0 c 0,9.784 7.42,17.335 17.4,17.335 6.37,0 12.017,-3.349 14.84,-8.405 L 23.639,3.94 C 22.522,6.238 20.159,7.616 17.27,7.616 13.002,7.616 9.85,4.53 9.85,0 c 0,-4.531 3.152,-7.617 7.42,-7.617 2.889,0 5.318,1.379 6.369,3.677 l 8.601,-4.925 c -2.823,-5.121 -8.405,-8.47 -14.84,-8.47 C 7.42,-17.335 0,-9.784 0,0"
               style="fill:#ffffff;fill-opacity:1;fill-rule:nonzero;stroke:none"
               id="path5184" />
          </g>
          <g
             id="g5186"
             transform="translate(809.4088,412.7961)"
             style="fill:#ffffff;fill-opacity:1">
            <path
               d="M 0,0 C 0,9.784 7.748,17.335 17.4,17.335 27.053,17.335 34.802,9.784 34.802,0 34.802,-9.784 27.053,-17.335 17.4,-17.335 7.748,-17.335 0,-9.784 0,0 m 24.952,0 c 0,4.662 -3.283,7.748 -7.552,7.748 -4.267,0 -7.55,-3.086 -7.55,-7.748 0,-4.662 3.283,-7.749 7.55,-7.749 4.269,0 7.552,3.087 7.552,7.749"
               style="fill:#ffffff;fill-opacity:1;fill-rule:nonzero;stroke:none"
               id="path5188" />
          </g>
          <g
             id="g5190"
             transform="translate(879.1525,416.5388)"
             style="fill:#ffffff;fill-opacity:1">
            <path
               d="m 0,0 v -20.159 h -9.85 v 18.714 c 0,4.071 -2.56,5.976 -5.712,5.976 -3.611,0 -6.107,-2.101 -6.107,-6.764 v -17.926 h -9.849 v 32.832 h 9.849 V 9.587 c 1.774,2.429 5.057,4.005 9.39,4.005 C -5.647,13.592 0,8.865 0,0"
               style="fill:#ffffff;fill-opacity:1;fill-rule:nonzero;stroke:none"
               id="path5192" />
          </g>
          <g
             id="g5194"
             transform="translate(882.4152,412.7961)"
             style="fill:#ffffff;fill-opacity:1">
            <path
               d="M 0,0 C 0,9.784 7.748,17.335 17.4,17.335 27.053,17.335 34.802,9.784 34.802,0 34.802,-9.784 27.053,-17.335 17.4,-17.335 7.748,-17.335 0,-9.784 0,0 m 24.952,0 c 0,4.662 -3.283,7.748 -7.552,7.748 -4.268,0 -7.55,-3.086 -7.55,-7.748 0,-4.662 3.282,-7.749 7.55,-7.749 4.269,0 7.552,3.087 7.552,7.749"
               style="fill:#ffffff;fill-opacity:1;fill-rule:nonzero;stroke:none"
               id="path5196" />
          </g>
          <g
             id="g5198"
             transform="translate(969.7194,416.5388)"
             style="fill:#ffffff;fill-opacity:1">
            <path
               d="m 0,0 v -20.159 h -9.85 v 19.305 c 0,3.284 -1.575,5.385 -4.727,5.385 -3.283,0 -5.122,-2.299 -5.122,-6.173 v -18.517 h -9.85 v 19.305 c 0,3.284 -1.575,5.385 -4.727,5.385 -3.283,0 -5.122,-2.299 -5.122,-6.173 v -18.517 h -9.849 v 32.832 h 9.849 V 9.652 c 1.511,2.233 4.399,3.94 8.799,3.94 3.874,0 6.763,-1.576 8.602,-4.333 1.838,2.626 4.859,4.333 9.52,4.333 C -4.925,13.592 0,8.208 0,0"
               style="fill:#ffffff;fill-opacity:1;fill-rule:nonzero;stroke:none"
               id="path5200" />
          </g>
          <g
             id="g5202"
             transform="translate(1003.4645,429.2119)"
             style="fill:#ffffff;fill-opacity:1">
            <path
               d="m 0,0 -11.229,-31.847 c -3.677,-10.44 -9.521,-14.577 -18.713,-14.117 v 9.193 c 4.596,0 6.763,1.444 8.207,5.449 L -34.802,0 h 10.835 L -16.679,-20.093 -10.507,0 Z"
               style="fill:#ffffff;fill-opacity:1;fill-rule:nonzero;stroke:none"
               id="path5204" />
          </g>
          <g
             id="g5206"
             transform="translate(649.1123,346.113)"
             style="fill:#ffffff;fill-opacity:1">
            <path
               d="m 0,0 9.062,5.254 c 1.641,-3.809 4.465,-6.37 9.652,-6.37 4.991,0 6.238,1.97 6.238,3.743 0,2.824 -2.626,3.94 -9.521,5.844 -6.829,1.904 -13.526,5.187 -13.526,13.986 0,8.865 7.485,13.986 15.431,13.986 7.551,0 13.46,-3.611 16.809,-10.375 l -8.864,-5.187 c -1.576,3.284 -3.743,5.319 -7.945,5.319 -3.284,0 -4.925,-1.641 -4.925,-3.48 0,-2.101 1.116,-3.546 8.273,-5.713 6.96,-2.101 14.774,-4.53 14.774,-14.248 0,-8.865 -7.091,-14.118 -17.072,-14.118 C 8.733,-11.359 2.561,-6.763 0,0"
               style="fill:#ffffff;fill-opacity:1;fill-rule:nonzero;stroke:none"
               id="path5208" />
          </g>
          <g
             id="g5210"
             transform="translate(686.8695,352.0886)"
             style="fill:#ffffff;fill-opacity:1">
            <path
               d="m 0,0 c 0,9.784 7.42,17.335 17.401,17.335 6.369,0 12.016,-3.349 14.84,-8.404 L 23.639,3.94 C 22.522,6.238 20.159,7.617 17.27,7.617 13.001,7.617 9.85,4.531 9.85,0 c 0,-4.53 3.151,-7.617 7.42,-7.617 2.889,0 5.318,1.379 6.369,3.678 l 8.602,-4.925 c -2.824,-5.122 -8.405,-8.471 -14.84,-8.471 C 7.42,-17.335 0,-9.783 0,0"
               style="fill:#ffffff;fill-opacity:1;fill-rule:nonzero;stroke:none"
               id="path5212" />
          </g>
          <g
             id="g5214"
             transform="translate(721.1129,377.3035)"
             style="fill:#ffffff;fill-opacity:1">
            <path
               d="M 0,0 C 0,3.218 2.692,5.91 5.91,5.91 9.128,5.91 11.819,3.218 11.819,0 11.819,-3.217 9.128,-5.91 5.91,-5.91 2.692,-5.91 0,-3.217 0,0 m 0.985,-8.799 h 9.849 V -41.631 H 0.985 Z"
               style="fill:#ffffff;fill-opacity:1;fill-rule:nonzero;stroke:none"
               id="path5216" />
          </g>
          <g
             id="g5218"
             transform="translate(753.4678,343.5525)"
             style="fill:#ffffff;fill-opacity:1">
            <path
               d="m 0,0 c 2.692,0 4.99,1.051 6.304,2.495 l 7.879,-4.531 C 10.965,-6.5 6.107,-8.799 -0.131,-8.799 c -11.229,0 -18.188,7.552 -18.188,17.335 0,9.784 7.091,17.335 17.466,17.335 9.586,0 16.678,-7.42 16.678,-17.335 0,-1.378 -0.131,-2.692 -0.393,-3.939 H -7.88 C -6.632,1.182 -3.612,0 0,0 m 6.042,11.951 c -1.052,3.808 -4.007,5.187 -6.962,5.187 -3.742,0 -6.237,-1.838 -7.157,-5.187 z"
               style="fill:#ffffff;fill-opacity:1;fill-rule:nonzero;stroke:none"
               id="path5220" />
          </g>
          <g
             id="g5222"
             transform="translate(804.3521,355.8318)"
             style="fill:#ffffff;fill-opacity:1">
            <path
               d="m 0,0 v -20.159 h -9.85 v 18.714 c 0,4.071 -2.56,5.976 -5.712,5.976 -3.611,0 -6.107,-2.101 -6.107,-6.763 v -17.927 h -9.849 v 32.832 h 9.849 V 9.587 c 1.774,2.429 5.057,4.005 9.39,4.005 C -5.647,13.592 0,8.864 0,0"
               style="fill:#ffffff;fill-opacity:1;fill-rule:nonzero;stroke:none"
               id="path5224" />
          </g>
          <g
             id="g5226"
             transform="translate(807.7809,352.0886)"
             style="fill:#ffffff;fill-opacity:1">
            <path
               d="m 0,0 c 0,9.784 7.42,17.335 17.4,17.335 6.37,0 12.017,-3.349 14.84,-8.404 L 23.639,3.94 C 22.522,6.238 20.159,7.617 17.27,7.617 13.002,7.617 9.85,4.531 9.85,0 c 0,-4.53 3.152,-7.617 7.42,-7.617 2.889,0 5.318,1.379 6.369,3.678 L 32.24,-8.864 C 29.417,-13.986 23.835,-17.335 17.4,-17.335 7.42,-17.335 0,-9.783 0,0"
               style="fill:#ffffff;fill-opacity:1;fill-rule:nonzero;stroke:none"
               id="path5228" />
          </g>
          <g
             id="g5230"
             transform="translate(859.3337,343.5525)"
             style="fill:#ffffff;fill-opacity:1">
            <path
               d="m 0,0 c 2.692,0 4.99,1.051 6.304,2.495 l 7.879,-4.531 C 10.965,-6.5 6.107,-8.799 -0.131,-8.799 c -11.229,0 -18.189,7.552 -18.189,17.335 0,9.784 7.092,17.335 17.467,17.335 9.586,0 16.678,-7.42 16.678,-17.335 0,-1.378 -0.131,-2.692 -0.394,-3.939 H -7.88 C -6.632,1.182 -3.612,0 0,0 m 6.042,11.951 c -1.052,3.808 -4.007,5.187 -6.962,5.187 -3.742,0 -6.237,-1.838 -7.157,-5.187 z"
               style="fill:#ffffff;fill-opacity:1;fill-rule:nonzero;stroke:none"
               id="path5232" />
          </g>
        </g>
      </g>
      <path
         d="m 661.751,277.632 h -10.506 v 45.965 h 10.506 z"
         style="fill:#ffffff;fill-opacity:1;fill-rule:nonzero;stroke:none"
         id="path5234" />
      <g
         id="g5236"
         style="fill:#ffffff;fill-opacity:1">
        <g
           id="g5238"
           clip-path="url(#clipPath5242)"
           style="fill:#ffffff;fill-opacity:1">
          <g
             id="g5244"
             transform="translate(697.1909,297.7908)"
             style="fill:#ffffff;fill-opacity:1">
            <path
               d="m 0,0 v -20.159 h -9.849 v 18.715 c 0,4.07 -2.561,5.974 -5.713,5.974 -3.611,0 -6.107,-2.101 -6.107,-6.762 v -17.927 h -9.849 v 32.832 h 9.849 V 9.586 c 1.773,2.43 5.057,4.007 9.39,4.007 C -5.647,13.593 0,8.864 0,0"
               style="fill:#ffffff;fill-opacity:1;fill-rule:nonzero;stroke:none"
               id="path5246" />
          </g>
          <g
             id="g5248"
             transform="translate(727.0081,287.4812)"
             style="fill:#ffffff;fill-opacity:1">
            <path
               d="m 0,0 c 0,-7.552 -6.567,-10.769 -13.658,-10.769 -6.567,0 -11.557,2.495 -14.118,7.814 l 8.536,4.86 c 0.854,-2.496 2.692,-3.875 5.582,-3.875 2.364,0 3.546,0.723 3.546,2.035 0,3.613 -16.154,1.708 -16.154,13.068 0,7.157 6.041,10.769 12.87,10.769 5.319,0 10.047,-2.364 12.804,-7.027 l -8.404,-4.53 c -0.92,1.708 -2.233,2.888 -4.4,2.888 -1.707,0 -2.757,-0.655 -2.757,-1.837 C -16.153,9.653 0,12.147 0,0"
               style="fill:#ffffff;fill-opacity:1;fill-rule:nonzero;stroke:none"
               id="path5250" />
          </g>
          <g
             id="g5252"
             transform="translate(740.3967,301.4832)"
             style="fill:#ffffff;fill-opacity:1">
            <path
               d="m 0,0 v -10.975 c 0,-4.821 4.297,-4.209 8.63,-3.946 v -8.931 c -12.869,-1.312 -18.48,2.561 -18.48,11.755 V -0.475 8.98 18.173 H 0 V 10.802 C 0,9.796 0.816,8.98 1.822,8.98 h 7.21 L 9.106,0 Z"
               style="fill:#ffffff;fill-opacity:1;fill-rule:nonzero;stroke:none"
               id="path5254" />
          </g>
          <g
             id="g5256"
             transform="translate(776.3342,301.4832)"
             style="fill:#ffffff;fill-opacity:1">
            <path
               d="m 0,0 v -10.975 c 0,-4.821 4.297,-4.209 8.631,-3.946 v -8.931 C -4.239,-25.164 -9.85,-21.291 -9.85,-12.097 V -0.475 8.98 18.173 H 0 V 10.802 C 0,9.796 0.816,8.98 1.822,8.98 h 7.21 L 9.106,0 Z"
               style="fill:#ffffff;fill-opacity:1;fill-rule:nonzero;stroke:none"
               id="path5258" />
          </g>
          <g
             id="g5260"
             transform="translate(834.7167,301.4832)"
             style="fill:#ffffff;fill-opacity:1">
            <path
               d="m 0,0 v -10.975 c 0,-4.821 4.297,-4.209 8.631,-3.946 v -8.931 C -4.239,-25.164 -9.85,-21.291 -9.85,-12.097 V -0.475 8.98 18.173 H 0 V 10.802 C 0,9.796 0.816,8.98 1.822,8.98 h 7.21 L 9.106,0 Z"
               style="fill:#ffffff;fill-opacity:1;fill-rule:nonzero;stroke:none"
               id="path5262" />
          </g>
          <g
             id="g5264"
             transform="translate(751.8908,319.2615)"
             style="fill:#ffffff;fill-opacity:1">
            <path
               d="M 0,0 C 0,3.218 2.692,5.91 5.91,5.91 9.127,5.91 11.819,3.218 11.819,0 11.819,-3.217 9.127,-5.909 5.91,-5.909 2.692,-5.909 0,-3.217 0,0 m 0.985,-8.798 h 9.848 V -41.63 H 0.985 Z"
               style="fill:#ffffff;fill-opacity:1;fill-rule:nonzero;stroke:none"
               id="path5266" />
          </g>
          <g
             id="g5268"
             transform="translate(820.8646,310.4636)"
             style="fill:#ffffff;fill-opacity:1">
            <path
               d="m 0,0 v -32.832 h -9.85 v 3.086 c -1.772,-2.429 -5.055,-4.005 -9.39,-4.005 -6.631,0 -12.278,4.728 -12.278,13.592 V 0 h 9.85 v -18.714 c 0,-4.071 2.56,-5.975 5.712,-5.975 3.611,0 6.106,2.1 6.106,6.762 V 0 Z"
               style="fill:#ffffff;fill-opacity:1;fill-rule:nonzero;stroke:none"
               id="path5270" />
          </g>
          <g
             id="g5272"
             transform="translate(863.0963,285.5115)"
             style="fill:#ffffff;fill-opacity:1">
            <path
               d="m 0,0 c 2.692,0 4.99,1.051 6.304,2.495 l 7.879,-4.53 C 10.965,-6.5 6.107,-8.799 -0.131,-8.799 c -11.229,0 -18.189,7.551 -18.189,17.335 0,9.784 7.092,17.336 17.467,17.336 9.586,0 16.678,-7.42 16.678,-17.336 0,-1.379 -0.131,-2.691 -0.395,-3.94 H -7.88 C -6.632,1.182 -3.612,0 0,0 m 6.042,11.95 c -1.052,3.81 -4.007,5.188 -6.962,5.188 -3.742,0 -6.237,-1.838 -7.157,-5.188 z"
               style="fill:#ffffff;fill-opacity:1;fill-rule:nonzero;stroke:none"
               id="path5274" />
          </g>
        </g>
      </g>
      <g
         id="g5276"
         transform="translate(880.9902,316.9792)"
         style="fill:#ffffff;fill-opacity:1">
        <path
           d="M 0,0 V -1.546 H -1.767 V -6.31 h -1.671 v 4.764 H -5.237 V 0 Z m 5.773,0 h 1.64 v -6.31 h -1.64 v 3.66 L 4.133,-5.174 H 3.975 L 2.334,-2.682 V -6.31 H 0.694 V 0 h 1.64 l 1.704,-2.65 z"
           style="fill:#ffffff;fill-opacity:1;fill-rule:nonzero;stroke:none"
           id="path5278" />
      </g>
    </g>
  </g>
</svg>
